<?xml version="1.0" standalone="no"?>
<!DOCTYPE svg PUBLIC "-//W3C//DTD SVG 20010904//EN"
 "http://www.w3.org/TR/2001/REC-SVG-20010904/DTD/svg10.dtd">
<svg version="1.0" xmlns="http://www.w3.org/2000/svg"
 width="256.000000pt" height="256.000000pt" viewBox="0 0 256.000000 256.000000"
 preserveAspectRatio="xMidYMid meet">
<metadata>
Created by potrace 1.11, written by Peter Selinger 2001-2013
</metadata>
<g transform="translate(0.000000,256.000000) scale(0.100000,-0.100000)"
fill="#000000" stroke="none">
<path d="M1139 2553 c-13 -3 -15 -20 -11 -115 3 -65 1 -109 -5 -107 -5 2 -58
38 -117 79 -60 41 -110 75 -111 75 -1 0 -63 -74 -136 -165 -74 -91 -198 -241
-275 -335 -77 -93 -170 -207 -207 -252 -37 -45 -67 -90 -67 -99 0 -9 25 -50
55 -91 52 -71 55 -79 56 -137 1 -72 -2 -185 -6 -278 -1 -38 1 -66 5 -63 10 6
7 -56 -3 -73 -5 -7 -13 -9 -19 -6 -7 4 -8 2 -4 -4 5 -9 14 -7 32 4 25 17 27
15 27 -29 0 -10 5 -16 12 -14 6 3 18 1 26 -5 11 -8 10 -9 -3 -4 -10 3 -18 1
-18 -4 0 -5 -8 -7 -17 -4 -14 5 -15 4 -4 -4 8 -6 21 -7 30 -4 14 5 14 3 2 -11
-8 -10 -9 -17 -3 -17 6 0 15 7 20 17 8 13 10 11 9 -10 0 -19 -4 -25 -18 -22
-16 3 -17 1 -7 -21 9 -18 14 -21 24 -13 8 6 12 14 10 18 -3 4 0 13 6 21 8 12
9 12 4 -2 -3 -10 -1 -20 5 -24 6 -3 8 -12 5 -20 -6 -14 9 -20 17 -6 2 4 3 2 1
-5 -1 -6 3 -19 11 -29 7 -10 10 -25 7 -34 -5 -12 -3 -13 10 -2 13 10 17 10 21
-1 3 -9 -2 -13 -16 -11 -12 1 -26 3 -31 3 -5 1 -3 7 3 15 8 10 9 16 1 21 -5 3
-10 -1 -10 -10 0 -9 -5 -13 -11 -9 -8 4 -8 9 0 17 14 14 14 27 1 27 -6 0 -9
-5 -8 -11 2 -6 -2 -13 -8 -16 -6 -2 -11 3 -11 12 0 8 3 15 7 15 3 0 6 10 7 22
2 21 1 21 -9 5 -5 -11 -11 -26 -12 -35 -2 -9 -9 -18 -16 -20 -8 -3 -10 0 -5 8
5 9 4 11 -4 6 -15 -10 -3 -29 15 -22 7 3 23 -4 36 -15 17 -15 18 -19 5 -15 -9
3 -17 1 -17 -4 0 -6 6 -10 14 -10 8 0 18 -5 22 -12 5 -8 2 -9 -9 -5 -9 3 -16
3 -16 -1 4 -21 -2 -32 -13 -26 -7 4 -10 4 -6 -1 4 -4 3 -14 -4 -22 -8 -11 -7
-12 5 -7 9 3 19 14 22 23 7 23 41 20 61 -5 14 -18 14 -18 3 6 -6 14 -8 22 -4
18 5 -4 14 -3 22 3 9 9 13 8 13 0 0 -6 -4 -11 -10 -11 -5 0 -10 -5 -10 -10 0
-7 7 -7 23 0 19 9 20 9 6 -2 -9 -7 -15 -21 -13 -31 1 -9 -2 -15 -7 -11 -5 3
-7 9 -5 13 4 7 -3 7 -46 2 -4 -1 -5 -7 -2 -15 5 -13 16 -14 77 -7 4 1 6 4 6 8
-3 20 2 33 12 33 8 0 8 -4 0 -13 -8 -10 -7 -17 2 -27 6 -7 7 -10 2 -7 -6 3
-17 -4 -25 -16 -12 -20 -12 -21 4 -8 14 12 18 12 30 -5 8 -10 12 -21 10 -24
-3 -2 -8 0 -12 6 -9 13 -21 11 -51 -5 -27 -15 -17 -33 21 -37 13 -1 23 -3 23
-4 0 -1 11 -3 24 -6 20 -4 22 -2 11 11 -7 9 -19 14 -27 11 -9 -4 -11 -1 -7 6
4 6 3 8 -3 5 -6 -4 -13 0 -16 8 -5 12 0 11 28 -2 19 -9 35 -21 35 -25 0 -5 4
-6 10 -3 5 3 7 0 4 -8 -3 -8 -14 -17 -25 -20 -10 -3 -17 -2 -14 2 5 10 -32 7
-42 -2 -14 -14 -11 -36 4 -30 11 4 11 8 3 13 -8 5 -9 10 -2 14 6 3 13 2 17 -4
6 -10 45 -7 65 5 6 3 7 0 4 -9 -3 -9 1 -23 10 -31 33 -33 9 -56 -31 -30 -14 9
-23 12 -19 7 3 -6 3 -12 -1 -15 -5 -2 -2 -2 5 -1 6 2 12 -1 12 -5 0 -13 47 -6
67 10 10 7 7 1 -6 -13 l-23 -27 23 -29 c13 -17 33 -29 43 -29 10 1 21 -5 23
-13 4 -13 3 -13 -6 0 -13 19 -14 1 -1 -20 8 -13 11 -13 22 -1 9 10 10 12 1 7
-9 -5 -11 -2 -6 9 5 13 7 14 14 3 13 -19 11 -24 -13 -37 -15 -7 -16 -10 -4 -6
13 4 17 1 12 -10 -11 -29 4 -15 18 18 14 30 15 31 11 5 -2 -15 -6 -32 -10 -38
-3 -6 0 -7 9 -4 9 3 14 9 12 13 -3 4 -1 13 3 20 5 7 8 1 9 -19 0 -19 -3 -28
-10 -24 -7 5 -8 2 -3 -6 6 -10 11 -9 23 6 13 18 14 17 9 -9 -2 -15 0 -30 6
-34 6 -3 7 -1 3 5 -4 7 -1 12 9 12 9 0 13 -5 9 -11 -4 -8 1 -9 17 -4 24 7 24
7 4 -10 -16 -13 -17 -16 -3 -11 11 3 15 1 12 -8 -3 -7 3 -19 13 -27 16 -13 17
-12 5 3 -10 12 -10 18 -1 24 7 4 9 3 5 -4 -3 -6 -1 -14 5 -17 5 -4 8 -13 5
-21 -3 -8 -1 -14 4 -14 6 0 10 5 10 11 0 6 7 3 16 -5 17 -18 28 -21 19 -6 -3
5 -2 10 4 10 5 0 13 -5 16 -10 9 -15 25 -12 25 4 0 8 4 18 10 21 5 3 7 0 4 -8
-3 -8 0 -18 6 -22 6 -4 9 -1 8 7 -4 18 54 17 60 -1 3 -8 0 -11 -6 -7 -6 3 -13
2 -16 -3 -11 -16 21 -6 40 14 16 16 16 18 2 13 -9 -4 -22 -1 -28 7 -9 11 -7
12 11 8 17 -5 20 -3 15 8 -4 8 0 5 9 -6 13 -17 18 -18 36 -7 16 10 19 10 13 1
-5 -9 -2 -10 10 -6 11 5 15 3 10 -5 -5 -8 2 -9 24 -5 20 4 32 2 32 -4 0 -6 5
-7 11 -3 8 5 8 1 0 -14 -17 -32 -13 -37 9 -11 11 14 19 18 20 11 0 -7 5 -10
10 -7 6 4 7 11 4 17 -4 6 -2 8 4 4 6 -3 9 -16 7 -27 -3 -17 -2 -19 10 -9 8 6
11 19 9 28 -5 16 -5 16 8 0 13 -15 15 -15 26 0 10 15 11 15 5 -3 -5 -16 -4
-18 8 -7 17 16 32 16 24 0 -4 -7 0 -5 8 5 9 10 21 19 29 21 7 1 19 6 27 10 9
6 12 5 7 -2 -3 -6 -2 -13 4 -17 5 -3 10 1 10 9 0 8 5 18 12 22 7 4 8 3 4 -4
-4 -7 -3 -12 3 -12 5 0 13 5 16 11 5 7 14 4 25 -9 18 -19 20 -19 167 25 81 24
173 51 203 59 30 9 61 18 68 20 9 3 12 15 9 39 -3 19 0 38 6 42 5 3 7 1 4 -4
-4 -6 0 -14 9 -17 8 -3 12 -2 9 4 -3 6 -1 10 5 10 6 0 8 6 4 12 -4 7 5 2 21
-12 16 -14 25 -19 21 -13 -9 17 6 17 24 1 12 -11 12 -10 2 3 -10 14 -9 18 4
23 9 3 22 2 29 -4 9 -8 14 -6 19 5 3 8 15 15 26 15 11 0 20 5 20 11 0 6 6 9
14 6 10 -4 13 0 11 14 -3 13 0 19 8 16 7 -3 13 6 14 21 0 13 6 28 13 32 9 6 9
9 -1 13 -10 4 -9 6 4 6 9 1 17 5 17 11 0 5 6 7 13 4 7 -2 22 5 33 17 10 13 13
19 6 15 -12 -7 -12 70 2 224 7 75 29 391 29 427 1 21 2 21 34 7 18 -8 48 -21
67 -29 19 -8 37 -19 41 -25 10 -17 21 -11 22 12 2 16 -19 43 -70 92 -40 38
-187 180 -327 316 -351 340 -342 332 -386 363 -21 15 -121 85 -222 155 l-183
127 2 173 c1 94 0 174 -2 176 -2 2 -19 11 -37 20 -30 16 -112 20 -163 9z
m-789 -1533 c0 -5 -5 -10 -11 -10 -5 0 -7 5 -4 10 3 6 8 10 11 10 2 0 4 -4 4
-10z m55 -160 c3 -5 1 -10 -4 -10 -6 0 -11 5 -11 10 0 6 2 10 4 10 3 0 8 -4
11 -10z m80 -129 c12 -5 26 -4 35 2 12 9 12 8 -1 -6 -17 -19 -64 -33 -53 -15
4 5 0 14 -7 19 -17 11 -1 10 26 0z m116 -138 c13 -16 12 -17 -3 -4 -17 13 -22
21 -14 21 2 0 10 -8 17 -17z m26 -27 c0 -8 -6 -12 -15 -9 -11 5 -11 7 0 14 7
5 13 9 14 9 0 0 1 -6 1 -14z m-84 -10 c4 -10 0 -12 -15 -8 -15 4 -17 7 -6 13
17 11 15 11 21 -5z m128 -70 c5 3 9 0 9 -6 0 -15 -23 -7 -26 8 -1 7 0 8 3 2 2
-5 9 -8 14 -4z m29 -76 c-12 -8 -13 -13 -2 -30 6 -11 12 -25 12 -31 0 -16 -28
8 -42 35 -6 12 -7 18 -3 14 5 -5 15 1 23 13 8 11 17 18 20 14 4 -3 0 -10 -8
-15z m25 -28 c-3 -3 -11 0 -18 7 -9 10 -8 11 6 5 10 -3 15 -9 12 -12z m18 -26
c4 -10 1 -13 -8 -9 -8 3 -12 9 -9 14 7 12 11 11 17 -5z"/>
<path d="M346 862 c-3 -5 1 -9 9 -9 8 0 12 4 9 9 -3 4 -7 8 -9 8 -2 0 -6 -4
-9 -8z"/>
<path d="M343 818 c-4 -7 -1 -8 7 -3 10 6 12 3 7 -11 -7 -18 -6 -18 6 -2 8 10
16 17 18 15 2 -1 3 0 1 2 -6 10 -32 9 -39 -1z"/>
<path d="M290 801 c0 -6 4 -13 10 -16 6 -3 7 1 4 9 -7 18 -14 21 -14 7z"/>
<path d="M334 759 c0 -12 4 -15 12 -8 6 5 19 7 28 3 9 -3 16 -4 16 -1 0 3 -13
9 -28 15 -24 8 -28 7 -28 -9z"/>
<path d="M396 744 c-8 -20 -8 -24 2 -24 4 0 8 9 9 20 2 24 -3 26 -11 4z"/>
<path d="M345 680 c-2 -3 7 -6 21 -6 13 0 24 3 24 7 0 9 -40 8 -45 -1z"/>
<path d="M444 661 c-4 -9 -6 -22 -5 -30 1 -8 -2 -10 -10 -5 -8 4 -10 3 -5 -5
9 -15 27 -4 24 14 -2 8 5 20 16 28 15 11 16 14 3 14 -9 0 -19 -7 -23 -16z"/>
<path d="M523 613 c-16 -6 -17 -33 -1 -33 6 0 8 3 5 7 -4 3 -2 12 4 20 12 14
11 14 -8 6z"/>
<path d="M445 600 c-3 -6 1 -7 9 -4 18 7 21 14 7 14 -6 0 -13 -4 -16 -10z"/>
<path d="M485 600 c3 -5 8 -10 11 -10 2 0 4 5 4 10 0 6 -5 10 -11 10 -5 0 -7
-4 -4 -10z"/>
<path d="M468 583 c6 -2 10 -9 7 -13 -3 -5 0 -12 6 -16 8 -4 9 -3 5 4 -4 7 -1
12 6 12 9 0 9 3 -2 10 -8 5 -19 9 -25 9 -5 0 -4 -3 3 -6z"/>
<path d="M455 520 c-3 -5 -1 -10 4 -10 6 0 11 5 11 10 0 6 -2 10 -4 10 -3 0
-8 -4 -11 -10z"/>
<path d="M590 482 c0 -7 -5 -10 -12 -6 -7 5 -8 3 -3 -6 6 -9 4 -12 -7 -8 -8 4
-21 3 -27 -2 -9 -5 -4 -7 13 -7 15 0 29 4 32 9 3 5 17 -1 30 -13 31 -29 42
-18 15 17 -12 15 -21 21 -21 13 0 -11 -2 -11 -10 1 -7 11 -10 11 -10 2z m41
-29 c13 -16 12 -17 -3 -4 -17 13 -22 21 -14 21 2 0 10 -8 17 -17z"/>
<path d="M633 372 c0 -12 5 -22 9 -22 11 0 10 12 -2 30 -7 12 -9 10 -7 -8z"/>
<path d="M626 318 c3 -5 10 -6 15 -3 13 9 11 12 -6 12 -8 0 -12 -4 -9 -9z"/>
<path d="M679 273 c-13 -16 -12 -17 4 -4 16 13 21 21 13 21 -2 0 -10 -8 -17
-17z"/>
<path d="M830 176 c0 -2 8 -10 18 -17 15 -13 16 -12 3 4 -13 16 -21 21 -21 13z"/>
<path d="M1149 119 c-12 -8 -12 -10 1 -8 30 3 41 -1 34 -13 -4 -7 -3 -8 4 -4
16 10 15 14 -6 25 -12 6 -23 6 -33 0z"/>
<path d="M1221 111 c-10 -7 -10 -10 -1 -16 6 -4 16 -3 22 3 13 13 -4 23 -21
13z"/>
<path d="M1435 110 c-3 -5 -1 -10 4 -10 6 0 11 5 11 10 0 6 -2 10 -4 10 -3 0
-8 -4 -11 -10z"/>
</g>
</svg>
